# xmcd
#
# Track frame offsets:
#	150
#	16692
#	35207
#	53075
#	70052
#	91725
#	106382
#	119245
#	130102
#	147472
#	166590
#	183065
#	194935
#	209742
#	226150
#	238742
#	256610
#	272077
#	284497
#	302257
#	318180
#	334127
#
# Disc length: 4596
#
# Revision: 3
# Processed by: cddbd v1.5.1PL0 Copyright (c) Steve Scherf et al.
# Submitted via: ExactAudioCopy v0.90b4
# Normalized: r2:DSETVAR1
#
DISCID=3d11f216
DTITLE=Various Artist - Speed of the Sound of Loneliness
DYEAR=1995
DGENRE=Folk/Rock
TTITLE0=Terry Lee Hale - Ride Hard
TTITLE1=David Munyon - Earl's Song
TTITLE2=Bob Wiseman - Me an arrow
TTITLE3=Larry Barrett - The ringing in my ears
TTITLE4=Cheralee Dillon - Mr. Oliver
TTITLE5=The Htchin' Post - Lost Dutchman Mine
TTITLE6=Chet Kane - Starlight Serenade
TTITLE7=Hip Young Things - Summy
TTITLE8=Gary Floyd - Betterman
TTITLE9=Locust Fudge - Song to Phillipe
TTITLE10=Bob Wiseman - White Dress
TTITLE11=Chet Kane - Shadows
TTITLE12=Cosmic Twins - Too Lazy
TTITLE13=Cheralee Dillon - Tattoo You
TTITLE14=Locust Fudge - Another Valley
TTITLE15=The Htchin' Post - Coming Home
TTITLE16=Hip Young Things - The Little Tramp
TTITLE17=Terry Lee Hale - Feeding the Rat
TTITLE18=Larry Barrett - House of sky
TTITLE19=David Munyon - Dancing all over the world
TTITLE20=Cosmic Twins - I can't wait
TTITLE21=Gary Floyd - Beautiful germany
EXTD=
EXTT0=
EXTT1=
EXTT2=
EXTT3=
EXTT4=
EXTT5=
EXTT6=
EXTT7=
EXTT8=
EXTT9=
EXTT10=
EXTT11=
EXTT12=
EXTT13=
EXTT14=
EXTT15=
EXTT16=
EXTT17=
EXTT18=
EXTT19=
EXTT20=
EXTT21=
PLAYORDER=
